<?xml version="1.0" encoding="UTF-8" standalone="no"?>
<!-- Created using Karbon, part of Calligra: http://www.calligra.org/karbon -->

<svg
   xmlns:dc="http://purl.org/dc/elements/1.1/"
   xmlns:cc="http://creativecommons.org/ns#"
   xmlns:rdf="http://www.w3.org/1999/02/22-rdf-syntax-ns#"
   xmlns:svg="http://www.w3.org/2000/svg"
   xmlns="http://www.w3.org/2000/svg"
   xmlns:sodipodi="http://sodipodi.sourceforge.net/DTD/sodipodi-0.dtd"
   xmlns:inkscape="http://www.inkscape.org/namespaces/inkscape"
   width="595.277pt"
   height="595.277pt"
   version="1.1"
   id="svg25"
   sodipodi:docname="aiokubernetes2.svg"
   inkscape:version="0.92.3 (2405546, 2018-03-11)">
  <metadata
     id="metadata29">
    <rdf:RDF>
      <cc:Work
         rdf:about="">
        <dc:format>image/svg+xml</dc:format>
        <dc:type
           rdf:resource="http://purl.org/dc/dcmitype/StillImage" />
        <dc:title></dc:title>
      </cc:Work>
    </rdf:RDF>
  </metadata>
  <sodipodi:namedview
     pagecolor="#ffffff"
     bordercolor="#666666"
     borderopacity="1"
     objecttolerance="10"
     gridtolerance="10"
     guidetolerance="10"
     inkscape:pageopacity="0"
     inkscape:pageshadow="2"
     inkscape:window-width="3840"
     inkscape:window-height="2001"
     id="namedview27"
     showgrid="false"
     inkscape:zoom="2.3787246"
     inkscape:cx="638.75868"
     inkscape:cy="334.56759"
     inkscape:window-x="0"
     inkscape:window-y="0"
     inkscape:window-maximized="1"
     inkscape:current-layer="layer6" />
  <defs
     id="defs2" />
  <g
     inkscape:groupmode="layer"
     id="layer2"
     inkscape:label="Eyes"
     style="display:inline"
     sodipodi:insensitive="true">
    <path
       style="fill:#000000;stroke:#000000;stroke-width:3;stroke-linecap:butt;stroke-linejoin:miter;stroke-miterlimit:4;stroke-dasharray:none;stroke-opacity:1"
       d="m 405.04899,117.81523 c -0.34159,-12.18307 0.84599,-25.141612 8.18993,-35.475657 4.61935,-8.689841 19.71477,-8.063408 30.05562,-9.547933 12.92262,-1.653788 25.30601,-1.254405 39.05707,-1.751137 6.65833,0.359998 13.35887,1.072937 19.69283,3.19639 6.63125,2.337172 9.69653,3.202065 15.841,6.120778 2.33995,1.346742 6.10633,3.912442 6.10633,3.912442 0,0 -0.10951,5.952507 -1.98468,11.240148 -3.74444,12.659799 -6.13243,19.534309 -9.29727,28.424389 -9.59293,8.00048 -40.53706,12.98827 -55.28274,13.42815 -30.6607,-1.90103 -49.0698,-11.62514 -52.37809,-19.54757 z"
       id="path4587"
       inkscape:connector-curvature="0"
       sodipodi:nodetypes="ccccccccccc" />
    <path
       style="fill:#ffffff;fill-opacity:1;stroke:#000000;stroke-width:3;stroke-linecap:butt;stroke-linejoin:miter;stroke-miterlimit:4;stroke-dasharray:none;stroke-opacity:1"
       d="m 406.72801,98.712765 c 0,0 0.83191,-4.747196 2.18712,-9.772527 1.02908,-3.816016 2.66857,-8.415117 4.46759,-13.309175 1.6302,-4.434769 3.5692,-8.949476 5.60244,-13.135052 1.72466,-3.550334 3.63043,-6.485375 5.96388,-9.986145 2.0715,-3.107793 4.26856,-5.774953 7.77766,-8.667058 2.83046,-2.152263 8.1792,-5.454999 15.53395,-6.464175 7.78093,-1.067654 17.6387,0.334272 22.79884,4.712975 6.16729,6.963419 5.94725,17.684874 5.94725,17.684874 0,0 6.11167,-9.632099 11.13361,-12.640639 8.78958,-4.973882 20.92375,-2.630136 27.82756,4.569 6.5616,8.884696 8.03759,12.80023 8.46652,27.253299 -0.15378,2.003475 -0.73992,25.971748 -0.73992,25.971748 0,0 -7.92829,-14.476626 -16.83131,-18.739377 -6.34606,-2.036375 -11.25561,-1.648395 -16.19757,-1.325481 -5.02148,0.32811 -10.57253,2.322415 -13.71837,4.401694 -7.16647,5.314193 -17.13995,14.777904 -17.13995,14.777904 0,0 -0.51343,-11.073008 -10.13102,-16.033524 -8.05935,-3.717946 -9.71372,-4.244417 -17.10727,-4.03412 -5.50358,0.15654 -10.3185,0.310427 -14.84118,3.272956 -3.03744,1.692907 -10.99983,11.462823 -10.99983,11.462823 z"
       id="path33"
       inkscape:connector-curvature="0"
       sodipodi:nodetypes="csssscscccccccscccscc" />
    <path
       style="fill:none;stroke:#000000;stroke-width:3;stroke-linecap:butt;stroke-linejoin:miter;stroke-miterlimit:4;stroke-dasharray:none;stroke-opacity:1"
       d="m 477.00674,59.776482 c -1.98576,3.458648 -3.04886,5.577518 -5.77094,11.031939 -0.87462,1.756324 -2.19833,4.907119 -4.03457,10.208732 -1.60597,4.636747 -6.06297,18.502616 -6.05624,19.906217"
       id="path4672"
       inkscape:connector-curvature="0"
       sodipodi:nodetypes="ccsc" />
  </g>
  <g
     inkscape:groupmode="layer"
     id="layer6"
     inkscape:label="Body">
    <g
       transform="translate(1.44586,0.00593183)"
       id="layer3">
      <path
         id="path5538"
         transform="matrix(3.54331,0,0,3.54331,475.109,185.292)"
         stroke-miterlimit="2.00000000000"
         d="M 1.0646301,58.726665 C 3.2124761,54.300905 5.3693751,50.374717 7.2219,45.9556 8.850218,42.057844 9.9946345,39.818631 11.3275,34.2169 12.841365,29.5149 13.866406,25.432438 14.66411,20.239844 15.204456,16.474167 15.198366,13.221105 16.2883,9.70376 17.1223,6.019 18.9002,2.29127 22.3443,0.408956 33.3467,-2.28993 34.8048,8.98228 34.456,16.2432 35.684,25.5825 15.3078,89.8981 1.71712,77.3932 -1.26128,74.5708 0.638466,69.9143 0.189976,66.2845 l -1.5100947,-4.018199 c 1.24902182,-0.892882 1.73477228,-2.410309 2.3847488,-3.539636 z"
         inkscape:connector-curvature="0"
         style="fill:#000000;stroke:#000000;stroke-width:0.26458332;stroke-linecap:butt;stroke-linejoin:miter;stroke-miterlimit:2"
         sodipodi:nodetypes="ccccccccccc" />
    </g>
    <g
       transform="translate(1.44586,0.00593183)"
       id="layer1">
      <path
         id="path3808"
         transform="matrix(0.937502,0,0,0.937502,0,-308.268)"
         d=""
         inkscape:connector-curvature="0"
         style="fill:#000000" />
      <path
         id="path3810"
         transform="matrix(0.937502,0,0,0.937502,0,-308.268)"
         d=""
         inkscape:connector-curvature="0"
         style="fill:#000000" />
      <path
         id="path3806"
         transform="matrix(3.54331,0,0,3.54331,526.4,363.582)"
         d="M 0,0.115625 C 0.001,0.00414542 0.0166,-0.0333245 0.0337,0.0324255 0.0508,0.0981255 0.0497,0.189435 0.0317,0.235205 0.0132,0.280905 -8e-4,0.227205 6e-4,0.115625 Z"
         inkscape:connector-curvature="0"
         style="fill:#000000" />
      <g
         id="layer1-6"
         transform="translate(45.4294,214.831)"
         style="fill:none">
        <g
           id="g3052"
           style="fill:none">
          <path
             id="path3055"
             transform="matrix(0.238064,0,0,0.238064,1.33719,1.33896)"
             stroke-miterlimit="4.00000000000"
             d="M 348.987,0.060112 C 342.773,0.373111 336.685,1.91365 331.08,4.59136 L 86.7366,121.341 c -12.811,6.118 -22.116,17.689 -25.2813,31.438 L 1.17409,415.029 c -2.81226,12.207 -0.523981,25.024 6.34375,35.531 0.82426,1.272 1.71073,2.502 2.65626,3.688 L 179.299,664.529 c 8.868,11.022 22.314,17.44 36.531,17.437 l 271.219,-0.062 c 14.213,0.01 27.657,-6.396 36.531,-17.406 L 692.643,454.185 c 8.873,-11.028 12.197,-25.464 9.031,-39.219 l -60.375,-262.25 c -3.165,-13.748 -12.47,-25.319 -25.281,-31.437 L 371.643,4.59136 c -7.05,-3.36834 -14.841,-4.926425 -22.656,-4.531248 z"
             inkscape:connector-curvature="0"
             style="fill:#326ce5;stroke:#ffffff;stroke-width:0;stroke-linecap:butt;stroke-linejoin:miter;stroke-miterlimit:4" />
          <path
             id="path3059"
             transform="matrix(0.238064,0,0,0.238064,23.6659,22.5998)"
             stroke-miterlimit="4.00000000000"
             d="M 257.615,6.92963e-8 C 249.538,8.20069e-4 242.989,7.27591 242.99,16.25 c 0,0.1377 0.028,0.2693 0.031,0.4063 -0.012,1.2193 -0.071,2.6883 -0.031,3.75 0.193,5.176 1.321,9.1374 2,13.9062 1.23,10.2067 2.261,18.6674 1.625,26.5313 -0.619,2.9654 -2.803,5.6774 -4.75,7.5625 l -0.344,6.1875 c -8.777,0.7271 -17.612,2.0587 -26.437,4.0625 -37.975,8.6221 -70.67,28.1827 -95.563,54.5937 -1.615,-1.102 -4.441,-3.129 -5.281,-3.75 -2.611,0.353 -5.25,1.158 -8.688,-0.844 -6.5445,-4.405 -12.5054,-10.487 -19.7183,-17.812 -3.305,-3.504 -5.6983,-6.841 -9.625,-10.219 -0.8917,-0.7671 -2.2526,-1.8045 -3.25,-2.5937 -3.0699,-2.4476 -6.6907,-3.7241 -10.1875,-3.8438 -4.4959,-0.1539 -8.8239,1.6039 -11.6562,5.1563 -5.0353,6.3152 -3.4232,15.9682 3.5937,21.5622 0.0712,0.057 0.147,0.101 0.2188,0.157 0.9642,0.781 2.1449,1.783 3.0312,2.437 4.1669,3.077 7.9732,4.651 12.125,7.094 8.747,5.402 15.9984,9.881 21.75,15.281 2.246,2.394 2.6386,6.613 2.9375,8.438 l 4.6875,4.187 C 74.3653,196.264 62.7518,242.909 69.615,290.438 l -6.125,1.781 c -1.6143,2.084 -3.8954,5.364 -6.2813,6.344 -7.5251,2.37 -15.9942,3.24 -26.2187,4.312 -4.8004,0.399 -8.9422,0.161 -14.0313,1.125 -1.1201,0.212 -2.6807,0.619 -3.9062,0.906 -0.0426,0.009 -0.0824,0.022 -0.125,0.031 -0.0668,0.016 -0.1546,0.048 -0.2188,0.063 -8.62014,2.083 -14.15774,10.006 -12.374996,17.812 1.783156,7.809 10.203096,12.557 18.874996,10.688 0.0626,-0.014 0.1535,-0.017 0.2188,-0.031 0.0979,-0.023 0.184,-0.07 0.2812,-0.094 1.2089,-0.265 2.7238,-0.561 3.7813,-0.844 5.0033,-1.339 8.6269,-3.308 13.125,-5.031 9.6769,-3.471 17.6917,-6.37 25.5,-7.5 3.2611,-0.255 6.6971,2.012 8.4062,2.969 l 6.375,-1.094 C 91.5664,367.358 122.31,404.12 161.24,427.188 l -2.656,6.375 c 0.957,2.475 2.013,5.824 1.3,8.269 -2.839,7.361 -7.701,15.131 -13.238,23.793 -2.681,4.002 -5.424,7.108 -7.844,11.688 -0.578,1.095 -1.316,2.779 -1.875,3.937 -3.758,8.042 -1.001,17.305 6.219,20.781 7.266,3.498 16.285,-0.191 20.188,-8.25 0.006,-0.011 0.025,-0.019 0.031,-0.031 0.004,-0.009 -0.004,-0.022 0,-0.031 0.556,-1.143 1.343,-2.644 1.812,-3.719 2.073,-4.747 2.762,-8.815 4.219,-13.406 3.87,-9.72 5.996,-19.919 11.323,-26.274 1.458,-1.74 3.837,-2.41 6.302,-3.07 l 3.313,-6 c 33.938,13.027 71.926,16.523 109.875,7.906 8.657,-1.965 17.014,-4.509 25.093,-7.562 0.931,1.651 2.662,4.826 3.125,5.625 2.506,0.815 5.241,1.236 7.469,4.531 3.986,6.809 6.711,14.864 10.031,24.594 1.458,4.591 2.178,8.659 4.25,13.406 0.473,1.082 1.256,2.605 1.813,3.75 3.895,8.085 12.942,11.787 20.219,8.281 7.219,-3.477 9.979,-12.739 6.218,-20.781 -0.558,-1.158 -1.327,-2.841 -1.906,-3.937 -2.419,-4.58 -5.163,-7.655 -7.844,-11.657 -5.537,-8.662 -10.129,-15.857 -12.968,-23.218 -1.187,-3.797 0.2,-6.158 1.125,-8.625 -0.554,-0.635 -1.739,-4.22 -2.438,-5.907 40.458,-23.888 70.299,-62.021 84.313,-106.062 1.892,0.297 5.181,0.879 6.25,1.094 2.199,-1.451 4.222,-3.344 8.187,-3.032 7.808,1.13 15.823,4.03 25.5,7.5 4.498,1.723 8.122,3.724 13.125,5.063 1.058,0.283 2.573,0.547 3.781,0.812 0.098,0.024 0.184,0.072 0.282,0.094 0.065,0.015 0.156,0.017 0.218,0.031 8.673,1.867 17.094,-2.878 18.875,-10.687 1.781,-7.807 -3.754,-15.732 -12.375,-17.813 -1.254,-0.285 -3.032,-0.769 -4.25,-1 -5.089,-0.963 -9.231,-0.726 -14.031,-1.125 -10.224,-1.071 -18.693,-1.942 -26.219,-4.312 -3.068,-1.19 -5.251,-4.841 -6.312,-6.344 l -5.906,-1.719 c 3.062,-22.154 2.236,-45.211 -3.063,-68.281 -5.348,-23.285 -14.8,-44.581 -27.406,-63.344 1.515,-1.377 4.376,-3.911 5.187,-4.656 0.238,-2.624 0.034,-5.375 2.75,-8.281 5.752,-5.401 13.004,-9.879 21.75,-15.281 4.152,-2.443 7.99,-4.017 12.157,-7.094 0.942,-0.696 2.229,-1.798 3.218,-2.594 7.016,-5.596 8.631,-15.248 3.594,-21.5624 -5.037,-6.3141 -14.797,-6.9089 -21.812,-1.3125 -0.999,0.7908 -2.354,1.8225 -3.25,2.5939 -3.927,3.378 -6.352,6.714 -9.657,10.219 -7.212,7.326 -13.174,13.437 -19.718,17.843 -2.836,1.651 -6.99,1.08 -8.875,0.969 l -5.563,3.969 C 363.427,100.083 320.241,78.8183 273.74,74.6875 c -0.13,-1.9487 -0.3,-5.4712 -0.344,-6.5312 -1.903,-1.8217 -4.203,-3.3769 -4.781,-7.3125 -0.636,-7.8639 0.426,-16.3246 1.656,-26.5313 0.679,-4.7688 1.808,-8.7302 2,-13.9062 0.044,-1.1767 -0.026,-2.8841 -0.031,-4.1563 C 272.239,7.27591 265.692,-8.19931e-4 257.615,6.92963e-8 Z M 239.303,113.438 l -4.344,76.718 -0.313,0.157 c -0.291,6.863 -5.94,12.343 -12.875,12.343 -2.841,0 -5.463,-0.912 -7.593,-2.468 l -0.125,0.062 -62.907,-44.594 c 19.334,-19.011 44.063,-33.06 72.563,-39.531 5.206,-1.182 10.409,-2.059 15.594,-2.687 z m 36.656,0 c 33.273,4.092 64.045,19.158 87.625,42.25 l -62.5,44.312 -0.219,-0.094 c -5.547,4.052 -13.363,3.047 -17.687,-2.375 -1.772,-2.221 -2.701,-4.832 -2.813,-7.468 l -0.062,-0.032 z m -147.625,70.875 57.437,51.375 -0.062,0.312 c 5.184,4.507 5.949,12.328 1.625,17.75 -1.771,2.221 -4.142,3.711 -6.688,4.406 l -0.062,0.25 -73.625,21.25 c -3.748,-34.265 4.328,-67.573 21.375,-95.343 z m 258.156,0.031 c 8.534,13.832 14.997,29.282 18.844,46.031 3.801,16.548 4.755,33.067 3.187,49.031 l -74,-21.312 -0.062,-0.313 c -6.627,-1.811 -10.699,-8.551 -9.156,-15.312 0.632,-2.77 2.102,-5.113 4.093,-6.844 l -0.031,-0.156 z m -140.656,55.312 h 23.531 l 14.625,18.281 -5.25,22.813 -21.125,10.156 -21.187,-10.187 -5.25,-22.813 z m 75.437,62.563 c 1,-0.051 1.996,0.039 2.969,0.218 l 0.125,-0.156 76.156,12.875 c -11.145,31.313 -32.473,58.44 -60.968,76.594 l -29.563,-71.406 0.094,-0.125 c -2.716,-6.31 0.002,-13.71 6.25,-16.719 1.599,-0.77 3.271,-1.197 4.937,-1.281 z m -127.906,0.312 c 5.812,0.082 11.025,4.115 12.375,10.031 0.632,2.77 0.325,5.514 -0.719,7.938 l 0.219,0.281 -29.25,70.688 C 148.643,373.92 126.861,347.645 115.209,315.406 l 75.5,-12.812 0.125,0.156 c 0.844,-0.155 1.701,-0.23 2.531,-0.219 z m 63.781,30.969 c 2.025,-0.074 4.079,0.341 6.032,1.281 2.559,1.233 4.536,3.173 5.781,5.5 h 0.281 l 37.219,67.25 c -4.831,1.619 -9.796,3.003 -14.875,4.157 -28.465,6.462 -56.839,4.504 -82.531,-4.25 l 37.125,-67.125 h 0.062 c 2.228,-4.165 6.452,-6.649 10.906,-6.813 z"
             inkscape:connector-curvature="0"
             style="fill:#ffffff;stroke:#ffffff;stroke-width:0.25;stroke-linecap:butt;stroke-linejoin:miter;stroke-miterlimit:4" />
        </g>
      </g>
      <path
         id="path4080"
         transform="matrix(3.54331,0,0,3.54331,27.5357,382.52)"
         d="M 91.3118,60.0645 C 89.5828,59.9193 87.2145,59.4327 86.1201,58.998 83.8111,58.0808 82.737,57.3978 76.8409,53.0975 71.8558,49.4615 70.4778,48.2524 68.3001,45.6033 67.3891,44.495 65.6073,42.5067 64.3406,41.1849 63.0738,39.8632 59.7203,36.3538 56.8883,33.3865 50.4765,26.6683 45.9517,22.1435 44.3091,20.8075 41.3744,18.4205 36.002,15.429 32.5136,14.2393 c -1.4243,-0.4857 -1.8099,-0.545 -3.9088,-0.6005 -2.9307,-0.0776 -4.9109,0.2932 -7.9493,1.4882 -2.5013,0.9839 -4.0992,2.0786 -5.841,4.0017 -2.189,2.417 -3.3263,4.4429 -5.30322,9.4472 C 8.05936,32.2513 7.42919,34.291 7.13244,36.2757 6.76522,38.7316 6.33858,39.5309 5.5064,39.3221 4.39509,39.0431 1.6361,35.0154 0.961509,32.6872 0.2033,30.0703 0.009524,28.513 0.00463,24.9973 L 0,21.6706 0.737324,19.5109 C 2.48991,14.3774 6.01108,8.5147 9.38955,5.10517 10.462,4.02287 10.9146,3.7087 12.5538,2.90889 14.676,1.8734 17.3066,0.94872 19.2071,0.5702 21.0051,0.21208 27.4956,-0.1001 30.4344,0.0301804 36.0028,0.27702 43.2304,1.09608 47.4971,1.9638 c 3.1149,0.63349 8.2471,2.61172 11.6961,4.50832 4.2236,2.32263 7.3381,4.66988 13.6111,10.25808 2.1287,1.8963 4.3942,3.8993 5.0346,4.4512 0.6404,0.5519 2.4368,2.2775 3.992,3.8345 4.6221,4.6278 9.1174,7.7159 12.558,8.627 1.4477,0.3834 5.4289,0.5276 7.1201,0.258 0.704,-0.1122 1.953,-0.4646 2.777,-0.7831 0.823,-0.3185 2.994,-1.1036 4.823,-1.7446 1.83,-0.641 4.062,-1.4659 4.959,-1.8332 0.898,-0.3672 1.662,-0.6385 1.698,-0.6029 0.035,0.0356 -0.077,0.6156 -0.25,1.2889 -0.173,0.6732 -0.436,2.1299 -0.585,3.2371 -0.148,1.1072 -0.376,2.4996 -0.507,3.0942 -0.207,0.9386 -0.904,6.4383 -1.161,9.1482 -0.047,0.5032 -0.159,1.3639 -0.248,1.9128 -0.568,3.5011 -0.678,4.4408 -0.644,5.4848 l 0.038,1.1685 -1.4,0.706 c -0.771,0.3884 -2.413,1.0715 -3.65,1.5182 -1.237,0.4467 -3.015,1.1636 -3.952,1.593 -3.4354,1.5746 -7.9983,2.32 -12.0952,1.9757 z"
         inkscape:connector-curvature="0"
         style="fill:#ffffff" />
      <path
         style="fill:#008000;stroke:#000000;stroke-width:3.54330993;stroke-linecap:butt;stroke-linejoin:miter;stroke-miterlimit:4"
         d="m 408.21099,579.2667 c -15.96242,6.35275 -54.74612,14.2405 -89.54585,1.21588 -43.4137,-23.82826 -70.95158,-66.16383 -106.25657,-99.53611 -24.07586,-23.23455 -51.24385,-51.27304 -86.55053,-53.26036 -39.389736,0.2692 -64.830603,38.46456 -72.131401,73.45415 -7.277929,42.51993 -29.52925,-18.97099 -26.729736,-42.05201 5.079302,-45.68577 27.951548,-65.74809 75.067087,-78.28447 68.8826,-8.57796 128.2765,11.50219 178.25501,53.64132 28.38262,25.48142 53.74543,53.5444 73.48685,56.78138 17.06603,3.31184 17.8792,3.17141 32.10419,-1.14813 10.07974,-3.0608 13.70557,-6.3569 23.56872,-12.24263 3.75234,-2.23917 17.62669,-12.91789 21.56505,-15.20323 10.3697,-6.11107 11.21049,-6.50519 11.21049,-6.50519 0,0 0.99194,-2.43617 2.06661,-6.01079 7.14559,-19.16107 19.00629,-63.59456 38.94272,-35.74181 15.76958,14.90558 23.53732,7.87916 28.25462,-0.5521 22.41058,-44.3929 41.0833,-105.25882 55.93398,-163.17948 11.28651,-32.00599 -20.96172,-33.58494 -43.50835,-14.50045 -27.70819,23.68497 -57.87464,44.69164 -93.25299,54.90647 -36.48827,14.35802 -77.70345,9.33849 -114.89722,0.50185 -44.78783,-17.52532 -84.0044,-58.54432 -83.95895,-109.00639 -3.91773,-40.23268 29.08347,-76.72735 65.95858,-87.348297 43.54203,-5.591761 84.62718,12.584787 124.09717,28.002917 29.3604,12.69926 60.44267,1.41632 84.13802,-17.41835 28.61695,-21.985671 68.30127,-42.17808 103.92086,-24.665787 37.4922,28.449837 39.73126,66.779067 39.00014,97.755817 -3.55274,35.04269 -6.16331,61.46307 -12.94685,96.18277 -7.44404,38.10036 -21.09604,71.88868 -37.84197,107.29122 -3.44409,9.69066 -17.5766,31.67249 -26.05431,43.23455 -2.71048,3.6966 -10.29823,17.87944 -10.29823,17.87944 0,0 10.07748,-2.50143 13.28222,-2.94662 2.87734,-0.39971 8.55828,-0.85154 12.58596,-0.99712 11.21294,-1.0321 70.96498,-2.39867 98.79974,18.31003 42.1526,30.2239 55.24606,71.31884 47.02682,115.24438 -8.77044,47.66206 -44.48109,87.87615 -88.88156,106.22086 -40.16813,17.26708 -86.62291,8.66144 -126.62695,-4.838 -33.62881,-12.68941 -61.7778,-30.64794 -81.52951,-68.28969 -5.25823,-11.08448 -8.56826,-20.43386 -10.72667,-30.59547 -0.19055,-0.89707 -1.75925,-0.24372 -1.75925,-0.24372 0,0 -6.52845,0.90839 -15.76794,3.94317 z"
         id="path4084"
         inkscape:connector-curvature="0"
         sodipodi:nodetypes="cccccccccsscccccccccccccccscscsccccccscc" />
      <path
         id="path3828"
         transform="matrix(3.54331,0,0,3.54331,537.445,518.727)"
         stroke-miterlimit="4.00000000000"
         d="m 10.9481,0.00756952 c 1.4387,0.04259998 5.662513,0.44908293 7.407313,0.96167293 2.03582,0.55374655 3.051396,0.92981645 5.04595,2.27325365 1.477195,0.9949688 2.147638,1.859681 2.959773,4.1206539 0.624778,2.684206 0.473362,3.444636 -0.199513,5.681425 C 24.825515,17.486096 20.089746,19.562485 14.306,18.9053 5.8184,18.2366 -3.99308,9.44959 1.68319,2.5032 3.74332,0.21092 8.87886,-0.0536405 10.9481,0.00756952 Z"
         inkscape:connector-curvature="0"
         style="fill:#ffffff;stroke:#000000;stroke-width:1;stroke-linecap:butt;stroke-linejoin:miter;stroke-miterlimit:4"
         sodipodi:nodetypes="ccscsccc" />
      <path
         id="path5520"
         transform="matrix(3.54331,0,0,3.54331,537.559,445.791)"
         stroke-miterlimit="4.00000000000"
         d="M 7.3627071,-1.6295747 C 6.3350756,0.15414417 4.7453727,3.4035414 3.8898299,5.2709715 2.8391173,7.8101154 2.6054324,8.6920257 1.9214616,10.99883 1.4082316,13.12243 1.2489934,13.675697 0.8354017,16.762423 0.65507972,18.230993 0.4703493,19.6593 0.37834517,21.094033 0.25031265,23.0906 0.04824604,24.907565 0.0226995,26.4428 c -0.017,0.5682 -0.0412,-0.5672 0,0"
         inkscape:connector-curvature="0"
         style="fill:none;stroke:#000000;stroke-width:1;stroke-linecap:butt;stroke-linejoin:miter;stroke-miterlimit:4"
         sodipodi:nodetypes="ccccscc" />
      <path
         id="path5527"
         transform="matrix(3.54331,0,0,3.54331,422.526,480.543)"
         stroke-miterlimit="4.00000000000"
         d="M 5.5677603,-6.8906477 C 4.3855908,-4.4825819 3.749751,-2.9693355 2.0522608,1.7298958 0.28276302,7.7376047 0.26054792,10.879236 0.0782252,14.055553 c -0.14211897,3.973624 0.41336181,9.698179 0.82832181,12.762379"
         inkscape:connector-curvature="0"
         style="fill:none;stroke:#000000;stroke-width:1;stroke-linecap:butt;stroke-linejoin:miter;stroke-miterlimit:4"
         sodipodi:nodetypes="cccc" />
    </g>
  </g>
</svg>
